<svg xmlns="http://www.w3.org/2000/svg" viewBox="0 0 64 64" width="64" height="64">
  <defs>
    <linearGradient id="g1" x1="0%" y1="0%" x2="100%" y2="100%">
      <stop offset="0%" style="stop-color:#6366f1"/>
      <stop offset="50%" style="stop-color:#8b5cf6"/>
      <stop offset="100%" style="stop-color:#a855f7"/>
    </linearGradient>
    <linearGradient id="g2" x1="0%" y1="0%" x2="100%" y2="100%">
      <stop offset="0%" style="stop-color:#06b6d4"/>
      <stop offset="100%" style="stop-color:#6366f1"/>
    </linearGradient>
  </defs>
  <!-- Background rounded square -->
  <rect width="64" height="64" rx="14" fill="url(#g1)"/>
  <!-- Brain outline (simplified) -->
  <!-- Left hemisphere -->
  <path d="M18 28 C16 22 18 14 24 13 C26 12 28 13 29 15 L29 42 C28 44 26 44 24 43 C18 40 16 34 18 28Z"
        fill="rgba(255,255,255,0.9)"/>
  <!-- Right hemisphere -->
  <path d="M46 28 C48 22 46 14 40 13 C38 12 36 13 35 15 L35 42 C36 44 38 44 40 43 C46 40 48 34 46 28Z"
        fill="rgba(255,255,255,0.9)"/>
  <!-- Center divider -->
  <rect x="30" y="14" width="4" height="29" rx="2" fill="rgba(255,255,255,0.5)"/>
  <!-- Neural dots -->
  <circle cx="22" cy="24" r="2" fill="url(#g2)"/>
  <circle cx="42" cy="24" r="2" fill="url(#g2)"/>
  <circle cx="22" cy="33" r="2" fill="url(#g2)"/>
  <circle cx="42" cy="33" r="2" fill="url(#g2)"/>
  <!-- Signal lines -->
  <line x1="24" y1="24" x2="29" y2="28" stroke="rgba(6,182,212,0.8)" stroke-width="1.5" stroke-linecap="round"/>
  <line x1="40" y1="24" x2="35" y2="28" stroke="rgba(6,182,212,0.8)" stroke-width="1.5" stroke-linecap="round"/>
  <line x1="24" y1="33" x2="29" y2="29" stroke="rgba(6,182,212,0.8)" stroke-width="1.5" stroke-linecap="round"/>
  <line x1="40" y1="33" x2="35" y2="29" stroke="rgba(6,182,212,0.8)" stroke-width="1.5" stroke-linecap="round"/>
  <!-- Confidence bar at bottom -->
  <rect x="18" y="48" width="28" height="5" rx="2.5" fill="rgba(255,255,255,0.25)"/>
  <rect x="18" y="48" width="20" height="5" rx="2.5" fill="rgba(255,255,255,0.85)"/>
</svg>
